<svg version="1" xmlns="http://www.w3.org/2000/svg" width="346.667" height="346.667" viewBox="0 0 260.000000 260.000000"><path d="M113.8 14c-11.4 2-21.4 6-30.8 12.3-4.7 3.1-16 14-16 15.3 0 .4-.6 1.5-1.4 2.3-2.8 3.2-6.8 12.2-8.7 19.3-7.4 28.6 7.5 59.1 35.4 72.2l5.7 2.7V159.4l-5.7-5.5c-6.7-6.4-16.6-15.6-23.8-22-2.7-2.5-6.8-6.2-9-8.1-2.2-2-5.3-4.7-7-5.9-1.6-1.3-3.2-2.6-3.5-3-1.8-2.3-7.3-3-11.7-1.4-2.9 1-4.5 5.4-3.8 10.5.7 5 .9 5.2 15.3 18.1 8.1 7.3 16.5 14.8 18.7 16.8 2.2 2 10.1 9 17.5 15.6 16.4 14.6 14.9 13.1 18.2 18.2 1.6 2.3 4 5 5.4 5.9l2.5 1.7-8.3 8.4c-10.7 10.9-11.1 11.1-14.5 7.7-13.2-13.2-27.9-22.6-37.3-23.9-14.3-2-25.6 14.4-21.8 31.8 2.4 11.6 13.8 17.4 36.9 19.1 9.1.7 20.3-1.8 27.9-6.1 5.5-3.2 19-13.5 26.8-20.5 2.9-2.7 5.6-4.8 6-4.8.5 0 2.1 1.4 3.8 3.1 5.2 5.5 25.8 21.4 30.7 23.7 8.2 3.9 17.2 5.5 26.8 4.8 10.8-.8 23.3-4 28-7.2 10.1-6.9 11.5-24.4 2.8-36.2-9.8-13.3-26.5-9.4-49.1 11.7-4.2 3.9-8 7.1-8.5 7.1s-4.8-4-9.7-8.9l-8.8-8.9 4-3.6c2.2-2 4.7-5.1 5.6-7 1.5-3.2 4.4-6.2 18.6-18.6 4-3.6 7.8-7 8.4-7.5.6-.6 5.6-5 11.1-9.9 30.3-26.9 28.1-24.7 28.9-30 1.2-7.8-2-11.6-9.7-11.6-2.2 0-4.6 1.2-7.6 3.8-6.2 5.2-22.4 19.6-29.5 26.2-3.3 3-6.7 6.2-7.6 7-.9.8-3.3 3-5.2 4.8l-3.5 3.3v-10.5l-.1-10.5 5.6-3.2c9.6-5.3 13.7-8.8 20.5-17.2 13.7-16.8 17.3-38.2 10.2-59.2-10-29.2-46.1-49.2-78.7-43.5z"/></svg>